# xmcd
#
# Track frame offsets:
#	150
#	24920
#	44455
#	58057
#	72285
#	82745
#	92177
#	105150
#	118177
#	131992
#	145532
#	159397
#
# Disc length: 2304
#
# Revision: 1
# Processed by: cddbd v1.5.1PL0 Copyright (c) Steve Scherf et al.
# Submitted via: CDex 1.40Release
# Normalized: r0:DSETVAR1,TDELIM( - )
#
DISCID=9808fe0c
DTITLE=Various Artist - Classic Blues
DYEAR=1999
DGENRE=Blues
TTITLE0=B.B. King - The Thrill is Gone
TTITLE1=Robert Cray - Right Next Door
TTITLE2=John Lee Hooker - One Bourbon, One Scotch, One Beer
TTITLE3=Muddy Waters - Hard Loser
TTITLE4=Buddy Guy - First Time I Met the Blues
TTITLE5=Albert Collins - Frostbite
TTITLE6=T-Bone Walker - Why My Baby
TTITLE7=Slim Harpo - Baby, Scratch My Back
TTITLE8=Willie Dixon - Walking the Blues
TTITLE9=Etta James - At Last
TTITLE10=Albert King - Callin' On My Darling
TTITLE11=Koko Taylor - Wang Dang Doodle
EXTD=YEAR: 1999 ID3G: 0
EXTT0=
EXTT1=
EXTT2=
EXTT3=
EXTT4=
EXTT5=
EXTT6=
EXTT7=
EXTT8=
EXTT9=
EXTT10=
EXTT11=
PLAYORDER=
